<?xml version="1.0" encoding="UTF-8" standalone="no"?>
<!DOCTYPE svg PUBLIC "-//W3C//DTD SVG 1.1//EN" "http://www.w3.org/Graphics/SVG/1.1/DTD/svg11.dtd">
<svg width="100%" height="100%" viewBox="0 0 828 251" version="1.1" xmlns="http://www.w3.org/2000/svg" xmlns:xlink="http://www.w3.org/1999/xlink" xml:space="preserve" xmlns:serif="http://www.serif.com/" style="fill-rule:evenodd;clip-rule:evenodd;stroke-linejoin:round;stroke-miterlimit:2;">
    <g transform="matrix(4.16667,0,0,4.16667,272.162,141.454)">
        <path d="M0,-8.37C0.386,-10.232 0.904,-11.898 1.463,-13.241C4.393,-20.286 12.439,-27.493 22.853,-27.669C23.003,-27.671 23.149,-27.667 23.298,-27.666C23.871,-27.665 24.448,-27.65 25.034,-27.605C26.264,-27.519 27.427,-27.351 28.487,-27.104C36.928,-25.138 47.169,-17.179 47.185,-2.819C47.023,-1.114 46.757,0.42 46.447,1.656C44.461,9.579 37.521,18.889 26.039,19.916C21.638,20.185 17.457,19.432 14.344,18.124C6.355,14.771 -2.385,5.779 0,-8.37M53.179,-6.625C53.174,-6.599 53.167,-6.571 53.163,-6.545C53.089,-8.764 52.71,-11.055 51.91,-13.396C48.659,-22.919 40.763,-30.779 29.848,-33.295C29.848,-33.295 24.207,-34.771 16.802,-33.288C16.82,-33.288 16.839,-33.286 16.857,-33.285C15.463,-33.047 14.065,-32.67 12.673,-32.136C3.278,-28.534 -4.285,-20.352 -6.395,-9.351C-6.395,-9.351 -7.373,-5.449 -6.482,0.386C-6.467,0.486 -6.464,0.581 -6.448,0.682C-6.404,0.951 -6.343,1.217 -6.292,1.484C-6.258,1.667 -6.224,1.851 -6.186,2.037C-6.13,2.306 -6.073,2.574 -6.01,2.841C-5.985,2.95 -5.966,3.056 -5.939,3.166C-5.94,3.151 -5.938,3.134 -5.938,3.119C-3.734,12.077 2.479,20.044 11.964,23.999C11.964,23.999 17.293,26.401 24.814,26.193L24.824,26.193C24.838,26.192 24.852,26.193 24.866,26.192C24.863,26.192 24.86,26.191 24.858,26.19C26.236,26.171 27.648,26.026 29.09,25.737C38.956,23.763 47.784,16.966 51.709,6.475C51.709,6.475 53.678,0.91 53.179,-6.625" style="fill:white;fill-rule:nonzero;"/>
    </g>
    <g transform="matrix(4.09046,0.793244,0.793244,-4.09046,370.091,85.6533)">
        <path d="M0.664,-0.064C2.59,-0.063 4.152,1.498 4.151,3.424C4.151,5.349 2.589,6.91 0.664,6.912C-1.262,6.911 -2.824,5.35 -2.823,3.424C-2.823,1.498 -1.262,-0.064 0.664,-0.064" style="fill:white;fill-rule:nonzero;"/>
    </g>
    <g transform="matrix(4.16667,0,0,4.16667,416.326,129.724)">
        <path d="M0,-1.967C0,-1.185 -0.29,-0.443 -0.834,0.177C-1.015,0.367 -2.753,1.861 -3.904,2.85C-4.766,3.59 -5.506,4.227 -5.667,4.376C-5.684,4.39 -5.744,4.421 -5.807,4.453L-5.959,4.563C-6.448,4.921 -7.397,4.836 -8.303,3.98L-9.606,2.753C-12.083,0.421 -12.343,0.177 -12.679,-0.238C-13.02,-0.764 -13.2,-1.362 -13.2,-1.967C-13.2,-3.799 -12.221,-5.757 -9.473,-5.757C-8.277,-5.757 -7.806,-5.335 -7.261,-4.845C-7.167,-4.761 -7.074,-4.678 -6.979,-4.598L-6.572,-4.253L-6.072,-4.742C-5.544,-5.265 -5.046,-5.757 -3.683,-5.757C-1.291,-5.757 0,-3.804 0,-1.967M6.662,-16.512C5.578,-17.89 -3.584,-7.368 -10.049,-8.172C-17.495,-9.098 -20.112,-23.051 -21.588,-22.429C-22.986,-21.84 -16.918,-10.294 -16.4,-4.162C-15.844,2.422 -26.083,17.487 -24.485,18.652C-23.127,19.642 -17.748,5.064 -12.006,5.327C-8.129,5.506 -1.981,21.084 -0.645,20.478C0.588,19.92 -3.498,12.513 -6.159,6.281C-5.801,6.215 -5.46,6.079 -5.156,5.858C-5.042,5.802 -4.895,5.724 -4.758,5.596C-4.591,5.441 -3.818,4.778 -2.921,4.008C-0.671,2.075 0.295,1.236 0.46,1.05C1.247,0.155 1.663,-0.92 1.663,-2.058C1.663,-5.018 -0.489,-7.25 -3.361,-7.322C1.364,-11.516 7.534,-15.404 6.662,-16.512" style="fill:white;fill-rule:nonzero;"/>
    </g>
    <g transform="matrix(4.16667,0,0,4.16667,25.2,131.749)">
        <path d="M0,-3.284L-3.216,-3.31L-3.216,-9.643L0.082,-9.643C1.455,-9.643 2.439,-9.528 3.007,-9.301C3.553,-9.083 3.984,-8.728 4.322,-8.218C4.662,-7.705 4.827,-7.149 4.827,-6.52C4.827,-5.87 4.664,-5.3 4.327,-4.776C3.993,-4.259 3.541,-3.891 2.943,-3.654C2.323,-3.409 1.332,-3.284 0,-3.284M4.419,-1.229C5.476,-1.697 6.301,-2.402 6.873,-3.324C7.441,-4.24 7.729,-5.313 7.729,-6.513C7.729,-7.958 7.31,-9.195 6.481,-10.192C5.657,-11.183 4.574,-11.839 3.262,-12.138C2.405,-12.337 0.839,-12.432 -1.524,-12.432L-6.048,-12.432L-6.048,9.148L-3.216,9.148L-3.216,-0.524L-2.599,-0.524L4.893,9.148L8.417,9.148L0.912,-0.542C2.356,-0.606 3.533,-0.837 4.419,-1.229" style="fill:white;fill-rule:nonzero;"/>
    </g>
    <g transform="matrix(4.16667,0,0,4.16667,62.9058,158.243)">
        <path d="M0,-16.002L4.645,-16.002L4.645,2.789L7.519,2.789L7.519,-16.002L12.163,-16.002L12.163,-18.791L0,-18.791L0,-16.002Z" style="fill:white;fill-rule:nonzero;"/>
    </g>
    <g transform="matrix(4.16667,0,0,4.16667,196.239,103.936)">
        <path d="M0,10.065L-0.23,10.333C-2.11,12.519 -4.478,13.628 -7.267,13.628C-9.805,13.628 -11.935,12.807 -13.597,11.186C-15.255,9.568 -16.096,7.519 -16.096,5.096C-16.096,3.492 -15.72,2.028 -14.979,0.747C-14.236,-0.534 -13.176,-1.569 -11.826,-2.329C-10.473,-3.091 -8.982,-3.478 -7.394,-3.478C-5.938,-3.478 -4.585,-3.183 -3.372,-2.601C-2.162,-2.021 -1.109,-1.155 -0.243,-0.027L-0.015,0.27L2.214,-1.44L2.001,-1.736C0.969,-3.166 -0.373,-4.294 -1.989,-5.088C-3.601,-5.879 -5.429,-6.281 -7.422,-6.281C-10.728,-6.281 -13.519,-5.195 -15.72,-3.052C-17.923,-0.907 -19.041,1.773 -19.041,4.913C-19.041,7.889 -18.119,10.468 -16.301,12.579C-14.131,15.079 -11.135,16.346 -7.394,16.346C-5.43,16.346 -3.626,15.97 -2.032,15.228C-0.434,14.486 0.92,13.418 1.992,12.054L2.228,11.754L0,10.065Z" style="fill:white;fill-rule:nonzero;"/>
    </g>
    <g transform="matrix(4.16667,0,0,4.16667,620.865,153.373)">
        <path d="M0,-13.097L-1.643,-11.836C-2.549,-13.017 -3.637,-13.911 -4.906,-14.52C-6.176,-15.129 -7.57,-15.434 -9.091,-15.434C-10.752,-15.434 -12.291,-15.034 -13.707,-14.237C-15.123,-13.439 -16.22,-12.368 -16.999,-11.023C-17.777,-9.677 -18.167,-8.164 -18.167,-6.485C-18.167,-3.945 -17.296,-1.826 -15.555,-0.126C-13.813,1.573 -11.616,2.423 -8.963,2.423C-6.046,2.423 -3.605,1.28 -1.643,-1.004L0,0.242C-1.038,1.563 -2.334,2.586 -3.887,3.307C-5.439,4.03 -7.174,4.39 -9.091,4.39C-12.734,4.39 -15.609,3.177 -17.714,0.752C-19.479,-1.297 -20.362,-3.77 -20.362,-6.668C-20.362,-9.717 -19.293,-12.283 -17.154,-14.365C-15.017,-16.446 -12.338,-17.487 -9.119,-17.487C-7.174,-17.487 -5.418,-17.102 -3.852,-16.332C-2.284,-15.563 -1,-14.485 0,-13.097" style="fill:white;fill-rule:nonzero;"/>
    </g>
    <g transform="matrix(4.16667,0,0,4.16667,690.957,143.878)">
        <path d="M0,-3.115C-0.265,-4.173 -0.649,-5.017 -1.155,-5.649C-1.661,-6.282 -2.33,-6.792 -3.161,-7.178C-3.993,-7.566 -4.867,-7.76 -5.784,-7.76C-7.297,-7.76 -8.597,-7.273 -9.683,-6.302C-10.478,-5.593 -11.077,-4.531 -11.483,-3.115L0,-3.115ZM0,1.034L1.671,1.911C1.123,2.988 0.49,3.857 -0.229,4.517C-0.946,5.178 -1.754,5.681 -2.651,6.026C-3.55,6.37 -4.565,6.542 -5.699,6.542C-8.213,6.542 -10.178,5.719 -11.595,4.072C-13.013,2.424 -13.721,0.562 -13.721,-1.514C-13.721,-3.469 -13.121,-5.211 -11.921,-6.74C-10.4,-8.684 -8.363,-9.657 -5.812,-9.657C-3.186,-9.657 -1.088,-8.661 0.48,-6.669C1.595,-5.262 2.162,-3.507 2.181,-1.401L-11.682,-1.401C-11.645,0.388 -11.072,1.855 -9.967,2.999C-8.86,4.144 -7.495,4.716 -5.869,4.716C-5.085,4.716 -4.321,4.579 -3.58,4.307C-2.838,4.033 -2.207,3.672 -1.687,3.22C-1.167,2.769 -0.604,2.04 0,1.034" style="fill:white;fill-rule:nonzero;"/>
    </g>
    <g transform="matrix(4.16667,0,0,4.16667,-795.33,-987.713)">
        <rect x="362.288" y="256.374" width="1.982" height="21.354" style="fill:white;"/>
    </g>
    <g transform="matrix(4.16667,0,0,4.16667,-795.33,-987.713)">
        <rect x="368.094" y="256.374" width="1.982" height="21.354" style="fill:white;"/>
    </g>
    <g transform="matrix(4.16667,0,0,4.16667,794.77,163.171)">
        <path d="M0,-12.375C-1.104,-12.375 -2.122,-12.104 -3.055,-11.563C-3.988,-11.02 -4.731,-10.259 -5.283,-9.277C-5.834,-8.297 -6.11,-7.26 -6.11,-6.166C-6.11,-5.082 -5.832,-4.045 -5.275,-3.055C-4.72,-2.064 -3.972,-1.294 -3.034,-0.742C-2.096,-0.19 -1.089,0.086 -0.014,0.086C1.07,0.086 2.098,-0.188 3.069,-0.735C4.04,-1.282 4.787,-2.022 5.311,-2.955C5.834,-3.889 6.096,-4.94 6.096,-6.109C6.096,-7.892 5.509,-9.382 4.335,-10.579C3.161,-11.776 1.716,-12.375 0,-12.375M7.923,-13.891L7.923,1.516L5.969,1.516L5.969,-1.133C5.138,-0.122 4.206,0.638 3.172,1.147C2.139,1.657 1.008,1.912 -0.22,1.912C-2.4,1.912 -4.262,1.121 -5.806,-0.46C-7.349,-2.041 -8.121,-3.965 -8.121,-6.23C-8.121,-8.448 -7.342,-10.346 -5.784,-11.922C-4.227,-13.499 -2.353,-14.287 -0.163,-14.287C1.103,-14.287 2.247,-14.018 3.271,-13.48C4.295,-12.941 5.194,-12.135 5.969,-11.059L5.969,-13.891L7.923,-13.891Z" style="fill:white;fill-rule:nonzero;"/>
    </g>
</svg>
