<svg xmlns="http://www.w3.org/2000/svg" width="231.682" height="70.151" viewBox="0 0 231.682 70.151">
  <g id="Group_3713" data-name="Group 3713" transform="translate(-417 -2705.507)">
    <path id="Path_3180" data-name="Path 3180" d="M12.206,36.969a6.274,6.274,0,0,0,2.862-2.443,6.943,6.943,0,0,0,1-3.72,6.515,6.515,0,0,0-1.455-4.29,6.7,6.7,0,0,0-3.754-2.269A29.118,29.118,0,0,0,5.276,23.9H0V49.069H3.3V37.791h.719l8.737,11.279h4.11l-8.752-11.3a11.53,11.53,0,0,0,4.09-.8m-5.153-2.4L3.3,34.542V27.156H7.149a10.234,10.234,0,0,1,3.41.4,3.233,3.233,0,0,1,1.534,1.264,3.473,3.473,0,0,1,.589,1.98,3.645,3.645,0,0,1-.583,2.034,3.3,3.3,0,0,1-1.614,1.308,10.074,10.074,0,0,1-3.432.431" transform="translate(417 2703.979)" fill="#fff"/>
    <path id="Path_3181" data-name="Path 3181" d="M16.69,27.156h5.417V49.069h3.351V27.156h5.416V23.9H16.69Z" transform="translate(417.916 2703.979)" fill="#fff"/>
    <path id="Path_3182" data-name="Path 3182" d="M53.221,42.387l-.268.312a10.44,10.44,0,0,1-8.207,3.843,10.183,10.183,0,0,1-7.381-2.848,9.557,9.557,0,0,1-2.915-7.1,9.994,9.994,0,0,1,1.3-5.072,9.636,9.636,0,0,1,3.676-3.587A10.4,10.4,0,0,1,44.6,26.593a10.737,10.737,0,0,1,4.69,1.023,10.072,10.072,0,0,1,3.649,3l.266.347,2.6-1.995-.249-.345A12.412,12.412,0,0,0,50.9,24.716a14.247,14.247,0,0,0-6.336-1.391A13.37,13.37,0,0,0,34.89,27.09a12.509,12.509,0,0,0-3.874,9.289,13.3,13.3,0,0,0,3.2,8.939A13.1,13.1,0,0,0,44.6,49.712a14.716,14.716,0,0,0,6.253-1.3,12.729,12.729,0,0,0,4.692-3.7l.275-.35Z" transform="translate(418.703 2703.947)" fill="#fff"/>
    <path id="Path_3183" data-name="Path 3183" d="M165.963,29.172l-1.916,1.471a10.463,10.463,0,0,0-3.806-3.13,11.139,11.139,0,0,0-4.88-1.065,10.794,10.794,0,0,0-5.383,1.4,10.018,10.018,0,0,0-3.839,3.748,10.382,10.382,0,0,0-1.362,5.292,9.938,9.938,0,0,0,3.045,7.415,10.559,10.559,0,0,0,7.687,2.973,10.807,10.807,0,0,0,8.537-4l1.916,1.453A12.223,12.223,0,0,1,161.43,48.3a14.191,14.191,0,0,1-6.069,1.264A12.627,12.627,0,0,1,145.3,45.323a12.81,12.81,0,0,1-3.088-8.653,12.036,12.036,0,0,1,3.741-8.976,12.9,12.9,0,0,1,9.371-3.64,13.743,13.743,0,0,1,6.143,1.347,11.9,11.9,0,0,1,4.492,3.772" transform="translate(424.807 2703.987)" fill="#fff"/>
    <path id="Path_3184" data-name="Path 3184" d="M184.157,42.657l1.948,1.022a10.572,10.572,0,0,1-2.215,3.039,8.78,8.78,0,0,1-2.825,1.76,9.867,9.867,0,0,1-3.554.6,8.585,8.585,0,0,1-6.876-2.881,9.717,9.717,0,0,1-2.479-6.514,9.607,9.607,0,0,1,2.1-6.094,8.587,8.587,0,0,1,7.125-3.4,8.863,8.863,0,0,1,7.338,3.484,9.735,9.735,0,0,1,1.983,6.144H170.534a7.307,7.307,0,0,0,2,5.131,6.378,6.378,0,0,0,4.779,2,7.682,7.682,0,0,0,2.669-.477,7.032,7.032,0,0,0,2.208-1.268,10.73,10.73,0,0,0,1.967-2.549m0-4.839a7.637,7.637,0,0,0-1.347-2.955,6.367,6.367,0,0,0-2.339-1.784,7.151,7.151,0,0,0-3.059-.678,6.59,6.59,0,0,0-4.548,1.7,7.684,7.684,0,0,0-2.1,3.716Z" transform="translate(426.23 2704.324)" fill="#fff"/>
    <rect id="Rectangle_550" data-name="Rectangle 550" width="2.311" height="24.903" transform="translate(616.893 2728.041)" fill="#fff"/>
    <rect id="Rectangle_551" data-name="Rectangle 551" width="2.311" height="24.903" transform="translate(623.663 2728.041)" fill="#fff"/>
    <path id="Path_3185" data-name="Path 3185" d="M220.6,30.651V48.618h-2.279V45.529a9.892,9.892,0,0,1-3.262,2.659,9.114,9.114,0,0,1-10.471-1.875,9.28,9.28,0,0,1-2.7-6.729,9.1,9.1,0,0,1,2.726-6.637,8.877,8.877,0,0,1,6.555-2.759,8.485,8.485,0,0,1,4,.941,9.14,9.14,0,0,1,3.147,2.824v-3.3Zm-9.24,1.768a6.965,6.965,0,0,0-6.161,3.613,7.273,7.273,0,0,0,.008,7.256,7.07,7.07,0,0,0,2.614,2.7,6.83,6.83,0,0,0,3.521.966,7.217,7.217,0,0,0,3.6-.958,6.7,6.7,0,0,0,2.614-2.589,7.4,7.4,0,0,0,.916-3.678,7.15,7.15,0,0,0-2.054-5.213,6.8,6.8,0,0,0-5.055-2.094" transform="translate(428.082 2704.324)" fill="#fff"/>
    <path id="Path_3186" data-name="Path 3186" d="M127.651,39.011a28.5,28.5,0,0,0-21.806-28.358A32.386,32.386,0,0,0,83.021,14.5C70.67,21.929,65.55,36.157,65.7,45.953c-2.05-8.566-.531-14.6-.531-14.6A35.435,35.435,0,0,1,87.405,4.785C100.332-.169,113.7,6.37,121.414,15.2c8.746,10.013,6.238,23.811,6.238,23.811" transform="translate(420.547 2702.836)" fill="#d9000d"/>
    <path id="Path_3187" data-name="Path 3187" d="M101.522,65.513c13.41-1.183,21.515-12.051,23.833-21.3,1.364-5.442,2.058-15.784-2.192-23.482C116.192,8.116,100.58,3.676,90.785,3.463A37.052,37.052,0,0,1,106,3.455a35.439,35.439,0,0,1,25.728,23.2c4.475,13.1-1.839,24.98-8.746,31.435-7.668,7.166-21.458,7.419-21.458,7.419" transform="translate(421.983 2702.815)" fill="#f27c00"/>
    <path id="Path_3188" data-name="Path 3188" d="M72.279,30.919C69.466,47.451,79.673,57.955,89,61.87a32.407,32.407,0,0,0,23.149.038c13.42-5.254,20.643-19.219,22.139-28.9a41.912,41.912,0,0,1-1.713,15.277,35.435,35.435,0,0,1-26.378,22.463C92.62,73.464,81.269,65.4,75.146,55.4,68.2,44.065,72.279,30.919,72.279,30.919" transform="translate(420.902 2704.364)" fill="#111e72"/>
    <path id="Path_3189" data-name="Path 3189" d="M101.914,9.716c-13.419-1.084-23.928,7.945-27.59,16.747-2.146,5.161-3.809,14.359-.957,22.651C78.055,62.744,92,70.6,101.616,72.45a37.281,37.281,0,0,1-15.045-2.557A35.434,35.434,0,0,1,65.1,42.7c-2.212-13.665,6.606-23.446,14.5-28.65,8.763-5.78,22.317-4.335,22.317-4.335" transform="translate(420.555 2703.191)" fill="#0090df"/>
    <path id="Path_3190" data-name="Path 3190" d="M119.724,19.216c1.48,1.88-14.422,10.621-17.231,17.337-1.849,4.42,10.948,24.787,8.708,25.8-1.557.706-8.727-17.462-13.247-17.669-6.7-.307-12.97,16.695-14.553,15.54C81.538,58.865,93.478,41.3,92.829,33.618c-.6-7.15-7.68-20.615-6.05-21.3,1.723-.726,4.773,15.546,13.456,16.626,7.539.936,18.224-11.332,19.489-9.726" transform="translate(421.567 2703.342)" fill="#0a6d65"/>
    <path id="Path_3191" data-name="Path 3191" d="M103.837,22.827a4.067,4.067,0,1,1-3.218-4.766,4.066,4.066,0,0,1,3.218,4.766" transform="translate(422.258 2703.654)" fill="#0a6d65"/>
    <path id="Path_3192" data-name="Path 3192" d="M107.241,29.691a4.383,4.383,0,0,0-3.614,1.61,4.592,4.592,0,0,0-3.56-1.61,5.072,5.072,0,0,0-5.347,5.426,4.656,4.656,0,0,0,.763,2.537c.568.706.888.982,5.534,5.36,1.4,1.317,2.979,1.46,3.889.741.014-.012.019-.022.032-.034a1.436,1.436,0,0,0,.341-.211c.506-.469,5.725-4.9,6.035-5.251a4.709,4.709,0,0,0,1.221-3.141,5.253,5.253,0,0,0-5.292-5.426" transform="translate(422.199 2704.297)" fill="#91b508"/>
  </g>
</svg>
