<?xml version="1.0" encoding="UTF-8" standalone="no"?>
<!DOCTYPE svg PUBLIC "-//W3C//DTD SVG 1.1//EN" "http://www.w3.org/Graphics/SVG/1.1/DTD/svg11.dtd">
<svg width="100%" height="100%" viewBox="0 0 232 76" version="1.1" xmlns="http://www.w3.org/2000/svg" xmlns:xlink="http://www.w3.org/1999/xlink" xml:space="preserve" xmlns:serif="http://www.serif.com/" style="fill-rule:evenodd;clip-rule:evenodd;stroke-linejoin:round;stroke-miterlimit:2;">
    <g id="Group_57">
        <g>
            <g id="Path_3180" transform="matrix(1,0,0,1,0,1.312)">
                <path d="M12.206,36.969C13.387,36.467 14.387,35.614 15.068,34.526C15.745,33.405 16.092,32.115 16.068,30.806C16.112,29.248 15.595,27.726 14.613,26.516C13.652,25.36 12.329,24.561 10.859,24.247C9.013,23.952 7.144,23.836 5.276,23.9L0,23.9L0,49.069L3.3,49.069L3.3,37.791L4.019,37.791L12.756,49.07L16.866,49.07L8.114,37.77C9.515,37.754 10.901,37.483 12.204,36.97M7.051,34.57L3.3,34.542L3.3,27.156L7.149,27.156C8.3,27.096 9.453,27.232 10.559,27.556C11.19,27.806 11.727,28.248 12.093,28.82C12.486,29.405 12.691,30.096 12.682,30.8C12.693,31.521 12.49,32.229 12.099,32.834C11.716,33.432 11.15,33.891 10.485,34.142C9.374,34.482 8.213,34.628 7.053,34.573" style="fill:rgb(17,30,114);fill-rule:nonzero;"/>
            </g>
            <g id="Path_3181" transform="matrix(1,0,0,1,0.916,1.312)">
                <path d="M16.69,27.156L22.107,27.156L22.107,49.069L25.458,49.069L25.458,27.156L30.874,27.156L30.874,23.9L16.69,23.9L16.69,27.156Z" style="fill:rgb(17,30,114);fill-rule:nonzero;"/>
            </g>
            <g id="Path_3182" transform="matrix(1,0,0,1,1.703,1.28)">
                <path d="M53.221,42.387L52.953,42.699C50.946,45.161 47.922,46.577 44.746,46.542C42.003,46.626 39.34,45.599 37.365,43.694C35.445,41.839 34.387,39.263 34.45,36.594C34.425,34.818 34.874,33.067 35.75,31.522C36.628,30.016 37.899,28.776 39.426,27.935C41.004,27.045 42.788,26.582 44.6,26.593C46.22,26.576 47.824,26.925 49.29,27.616C50.727,28.313 51.978,29.341 52.939,30.616L53.205,30.963L55.805,28.968L55.556,28.623C54.352,26.955 52.752,25.612 50.9,24.716C48.923,23.771 46.755,23.295 44.564,23.325C40.965,23.226 37.475,24.584 34.89,27.09C32.356,29.506 30.95,32.878 31.016,36.379C30.947,39.65 32.086,42.834 34.216,45.318C36.836,48.272 40.656,49.888 44.6,49.712C46.754,49.742 48.889,49.298 50.853,48.412C52.688,47.568 54.297,46.3 55.545,44.712L55.82,44.362L53.221,42.387Z" style="fill:rgb(17,30,114);fill-rule:nonzero;"/>
            </g>
        </g>
        <g>
            <g id="Path_3183" transform="matrix(1,0,0,1,7.807,1.32)">
                <path d="M165.963,29.172L164.047,30.643C163.046,29.312 161.741,28.238 160.241,27.513C158.716,26.793 157.047,26.429 155.361,26.448C153.475,26.436 151.619,26.919 149.978,27.848C148.382,28.725 147.054,30.021 146.139,31.596C145.221,33.207 144.75,35.034 144.777,36.888C144.706,39.676 145.812,42.369 147.822,44.303C149.875,46.294 152.651,47.367 155.509,47.276C158.815,47.32 161.964,45.844 164.046,43.276L165.962,44.729C164.758,46.264 163.204,47.488 161.43,48.3C159.525,49.163 157.452,49.595 155.361,49.564C151.54,49.748 147.836,48.187 145.3,45.323C143.237,42.92 142.136,39.836 142.212,36.67C142.141,33.287 143.5,30.026 145.953,27.694C148.455,25.264 151.838,23.95 155.324,24.054C157.448,24.022 159.551,24.483 161.467,25.401C163.256,26.264 164.8,27.561 165.959,29.173" style="fill:rgb(17,30,114);fill-rule:nonzero;"/>
            </g>
            <g id="Path_3184" transform="matrix(1,0,0,1,9.23,1.657)">
                <path d="M184.157,42.657L186.105,43.679C185.554,44.816 184.804,45.846 183.89,46.718C183.069,47.479 182.11,48.077 181.065,48.478C179.927,48.895 178.722,49.098 177.511,49.078C174.902,49.215 172.368,48.153 170.635,46.197C169.032,44.407 168.148,42.085 168.156,39.683C168.133,37.471 168.875,35.318 170.256,33.589C171.937,31.368 174.597,30.099 177.381,30.189C180.244,30.095 182.982,31.395 184.719,33.673C186.059,35.435 186.759,37.604 186.702,39.817L170.534,39.817C170.506,41.722 171.224,43.564 172.534,44.948C173.772,46.26 175.51,46.987 177.313,46.948C178.224,46.948 179.128,46.787 179.982,46.471C180.789,46.186 181.537,45.756 182.19,45.203C182.97,44.457 183.633,43.598 184.157,42.654M184.157,37.815C183.925,36.745 183.466,35.737 182.81,34.86C182.18,34.091 181.379,33.48 180.471,33.076C179.514,32.627 178.469,32.395 177.412,32.398C175.735,32.365 174.108,32.974 172.864,34.098C171.827,35.113 171.099,36.402 170.764,37.814L184.157,37.815Z" style="fill:rgb(17,30,114);fill-rule:nonzero;"/>
            </g>
            <g id="Rectangle_550" transform="matrix(1,0,0,1,199.892,25.373)">
                <rect x="0" y="0" width="2.311" height="24.903" style="fill:rgb(17,30,114);"/>
            </g>
            <g id="Rectangle_551" transform="matrix(1,0,0,1,206.663,25.373)">
                <rect x="0" y="0" width="2.311" height="24.903" style="fill:rgb(17,30,114);"/>
            </g>
            <g id="Path_3185" transform="matrix(1,0,0,1,11.082,1.657)">
                <path d="M220.6,30.651L220.6,48.618L218.321,48.618L218.321,45.529C217.437,46.639 216.324,47.546 215.059,48.188C211.537,49.872 207.307,49.114 204.588,46.313C202.813,44.53 201.838,42.099 201.888,39.584C201.849,37.093 202.835,34.692 204.614,32.947C206.318,31.155 208.696,30.154 211.169,30.188C212.559,30.169 213.933,30.492 215.169,31.129C216.424,31.811 217.502,32.779 218.316,33.953L218.316,30.653L220.6,30.651ZM211.36,32.419C208.802,32.399 206.43,33.789 205.199,36.032C203.91,38.277 203.913,41.046 205.207,43.288C205.819,44.407 206.722,45.34 207.821,45.988C208.885,46.623 210.103,46.957 211.342,46.954C212.605,46.955 213.847,46.625 214.942,45.996C216.038,45.394 216.943,44.497 217.556,43.407C218.175,42.281 218.491,41.014 218.472,39.729C218.525,37.785 217.783,35.901 216.418,34.516C215.101,33.142 213.266,32.381 211.363,32.422" style="fill:rgb(17,30,114);fill-rule:nonzero;"/>
            </g>
        </g>
        <g>
            <g id="Path_3186" transform="matrix(1,0,0,1,3.548,0.169)">
                <path d="M127.651,39.011C127.957,25.654 118.832,13.788 105.845,10.653C98.025,9.081 89.893,10.451 83.021,14.5C70.67,21.929 65.55,36.157 65.7,45.953C63.65,37.387 65.169,31.353 65.169,31.353C67.449,19.244 75.887,9.162 87.405,4.785C100.332,-0.169 113.7,6.37 121.414,15.2C130.16,25.213 127.652,39.011 127.652,39.011" style="fill:rgb(217,0,13);fill-rule:nonzero;"/>
            </g>
            <g id="Path_3187" transform="matrix(1,0,0,1,4.983,0.148)">
                <path d="M101.522,65.513C114.932,64.33 123.037,53.462 125.355,44.213C126.719,38.771 127.413,28.429 123.163,20.731C116.192,8.116 100.58,3.676 90.785,3.463C95.801,2.408 100.983,2.405 106,3.455C118.016,6.181 127.778,14.984 131.728,26.655C136.203,39.755 129.889,51.635 122.982,58.09C115.314,65.256 101.524,65.509 101.524,65.509" style="fill:rgb(242,124,0);fill-rule:nonzero;"/>
            </g>
            <g id="Path_3188" transform="matrix(1,0,0,1,3.902,1.697)">
                <path d="M72.279,30.919C69.466,47.451 79.673,57.955 89,61.87C96.446,64.731 104.693,64.745 112.149,61.908C125.569,56.654 132.792,42.689 134.288,33.008C134.664,38.162 134.083,43.342 132.575,48.285C128.297,59.841 118.287,68.365 106.197,70.748C92.62,73.464 81.269,65.4 75.146,55.4C68.2,44.065 72.279,30.919 72.279,30.919" style="fill:rgb(17,30,114);fill-rule:nonzero;"/>
            </g>
            <g id="Path_3189" transform="matrix(1,0,0,1,3.554,0.525)">
                <path d="M101.914,9.716C88.495,8.632 77.986,17.661 74.324,26.463C72.178,31.624 70.515,40.822 73.367,49.114C78.055,62.744 92,70.6 101.616,72.45C96.478,72.644 91.356,71.774 86.571,69.893C75.181,65.19 67.033,54.87 65.1,42.7C62.888,29.035 71.706,19.254 79.6,14.05C88.363,8.27 101.917,9.715 101.917,9.715" style="fill:rgb(0,144,223);fill-rule:nonzero;"/>
            </g>
            <g id="Path_3190" transform="matrix(1,0,0,1,4.567,0.675)">
                <path d="M119.724,19.216C121.204,21.096 105.302,29.837 102.493,36.553C100.644,40.973 113.441,61.34 111.201,62.353C109.644,63.059 102.474,44.891 97.954,44.684C91.254,44.377 84.984,61.379 83.401,60.224C81.538,58.865 93.478,41.3 92.829,33.618C92.229,26.468 85.149,13.003 86.779,12.318C88.502,11.592 91.552,27.864 100.235,28.944C107.774,29.88 118.459,17.612 119.724,19.218" style="fill:rgb(10,109,101);fill-rule:nonzero;"/>
            </g>
            <g id="Path_3191" transform="matrix(1,0,0,1,5.257,0.987)">
                <path d="M103.837,22.827C103.468,24.732 101.785,26.121 99.844,26.121C97.613,26.121 95.777,24.285 95.777,22.054C95.777,19.822 97.613,17.987 99.844,17.987C100.104,17.987 100.364,18.011 100.619,18.061C102.523,18.43 103.911,20.113 103.911,22.053C103.911,22.313 103.886,22.572 103.837,22.827" style="fill:rgb(10,109,101);fill-rule:nonzero;"/>
            </g>
        </g>
        <g id="Path_3192" transform="matrix(1,0,0,1,5.199,1.63)">
            <path d="M107.241,29.691C105.85,29.623 104.506,30.221 103.627,31.301C102.74,30.262 101.433,29.671 100.067,29.691C99.971,29.686 99.875,29.683 99.779,29.683C96.997,29.683 94.707,31.972 94.707,34.755C94.707,34.876 94.711,34.996 94.72,35.117C94.723,36.019 94.988,36.9 95.483,37.654C96.051,38.36 96.371,38.636 101.017,43.014C102.417,44.331 103.996,44.474 104.906,43.755C104.92,43.743 104.925,43.733 104.938,43.721C105.061,43.667 105.176,43.596 105.279,43.51C105.785,43.041 111.004,38.61 111.314,38.259C112.094,37.399 112.529,36.279 112.535,35.118C112.537,35.06 112.538,35.003 112.538,34.945C112.538,32.063 110.167,29.692 107.285,29.692C107.271,29.692 107.257,29.692 107.243,29.692" style="fill:rgb(145,181,8);fill-rule:nonzero;"/>
        </g>
    </g>
</svg>
