<?xml version="1.0" encoding="UTF-8" standalone="no"?><!DOCTYPE svg PUBLIC "-//W3C//DTD SVG 1.1//EN" "http://www.w3.org/Graphics/SVG/1.1/DTD/svg11.dtd"><svg width="100%" height="100%" viewBox="0 0 200 61" version="1.1" xmlns="http://www.w3.org/2000/svg" xmlns:xlink="http://www.w3.org/1999/xlink" xml:space="preserve" xmlns:serif="http://www.serif.com/" style="fill-rule:evenodd;clip-rule:evenodd;stroke-linejoin:round;stroke-miterlimit:2;"><g id="Laag-1" serif:id="Laag 1"><g><path d="M66.141,26.022c0.384,-1.853 0.9,-3.512 1.456,-4.848c2.917,-7.013 10.926,-14.187 21.292,-14.362c0.15,-0.002 0.295,0.002 0.443,0.003c0.571,0.001 1.145,0.016 1.728,0.06c1.225,0.086 2.382,0.253 3.437,0.499c8.403,1.957 18.597,9.88 18.613,24.174c-0.162,1.697 -0.426,3.224 -0.735,4.454c-1.977,7.887 -8.885,17.154 -20.314,18.176c-4.381,0.268 -8.543,-0.481 -11.642,-1.783c-7.952,-3.338 -16.652,-12.289 -14.278,-26.373m52.935,1.737c-0.005,0.026 -0.012,0.054 -0.016,0.08c-0.073,-2.209 -0.451,-4.489 -1.247,-6.82c-3.236,-9.479 -11.096,-17.303 -21.961,-19.807c0,-0 -5.615,-1.47 -12.986,0.007c0.018,-0 0.037,0.001 0.055,0.002c-1.388,0.237 -2.779,0.613 -4.165,1.144c-9.352,3.586 -16.88,11.73 -18.981,22.681c0,-0 -0.973,3.884 -0.086,9.692c0.015,0.1 0.018,0.194 0.034,0.295c0.043,0.267 0.104,0.532 0.155,0.798c0.034,0.182 0.068,0.365 0.105,0.55c0.056,0.268 0.113,0.535 0.176,0.801c0.025,0.108 0.043,0.214 0.07,0.323c-0.001,-0.015 0.001,-0.032 0.001,-0.046c2.194,8.916 8.379,16.847 17.82,20.784c0,-0 5.305,2.391 12.791,2.184l0.01,-0c0.014,-0.001 0.028,-0 0.042,-0.001c-0.003,-0 -0.006,-0.001 -0.008,-0.002c1.372,-0.019 2.777,-0.164 4.213,-0.451c9.82,-1.965 18.608,-8.731 22.515,-19.174c-0,0 1.96,-5.539 1.463,-13.04" style="fill:#fff;fill-rule:nonzero;"/><path d="M90.173,21.211c1.882,0.365 3.704,-0.865 4.068,-2.747c0.366,-1.881 -0.865,-3.703 -2.746,-4.069c-1.882,-0.365 -3.704,0.865 -4.068,2.747c-0.366,1.882 0.864,3.704 2.746,4.069" style="fill:#fff;fill-rule:nonzero;"/><path d="M100.582,29.594c-0,0.778 -0.289,1.517 -0.831,2.134c-0.18,0.189 -1.91,1.676 -3.055,2.66c-0.859,0.737 -1.595,1.371 -1.755,1.519c-0.017,0.014 -0.077,0.045 -0.14,0.077l-0.151,0.11c-0.487,0.356 -1.431,0.271 -2.333,-0.581l-1.297,-1.221c-2.466,-2.321 -2.725,-2.564 -3.059,-2.977c-0.34,-0.524 -0.519,-1.119 -0.519,-1.721c0,-1.824 0.975,-3.773 3.71,-3.773c1.191,-0 1.659,0.42 2.202,0.908c0.093,0.083 0.186,0.166 0.281,0.246l0.405,0.343l0.497,-0.487c0.526,-0.52 1.022,-1.01 2.379,-1.01c2.381,-0 3.666,1.944 3.666,3.773m6.631,-14.479c-1.079,-1.371 -10.199,9.102 -16.634,8.302c-7.412,-0.922 -10.017,-14.811 -11.486,-14.192c-1.392,0.587 4.648,12.08 5.164,18.184c0.553,6.553 -9.639,21.549 -8.048,22.709c1.352,0.985 6.706,-13.526 12.422,-13.264c3.859,0.178 9.979,15.685 11.309,15.082c1.227,-0.556 -2.84,-7.929 -5.489,-14.132c0.356,-0.066 0.696,-0.201 0.998,-0.421c0.114,-0.056 0.26,-0.134 0.396,-0.261c0.167,-0.154 0.936,-0.814 1.829,-1.581c2.24,-1.924 3.201,-2.759 3.366,-2.944c0.783,-0.891 1.197,-1.961 1.197,-3.094c-0,-2.946 -2.142,-5.168 -5.001,-5.24c4.703,-4.175 10.845,-8.045 9.977,-9.148" style="fill:#fff;fill-rule:nonzero;"/><path d="M7.142,28.766l-3.201,-0.026l-0,-6.303l3.283,-0c1.366,-0 2.346,0.114 2.911,0.34c0.544,0.217 0.973,0.57 1.309,1.078c0.339,0.511 0.503,1.064 0.503,1.69c-0,0.647 -0.162,1.215 -0.498,1.736c-0.332,0.515 -0.782,0.881 -1.378,1.117c-0.617,0.244 -1.603,0.368 -2.929,0.368m4.399,2.046c1.052,-0.466 1.873,-1.168 2.442,-2.085c0.566,-0.912 0.853,-1.98 0.853,-3.175c-0,-1.438 -0.418,-2.67 -1.243,-3.662c-0.82,-0.986 -1.898,-1.639 -3.204,-1.937c-0.853,-0.198 -2.412,-0.293 -4.764,-0.293l-4.503,0l-0,21.481l2.819,0l-0,-9.627l0.614,-0l7.458,9.627l3.507,0l-7.47,-9.645c1.437,-0.064 2.609,-0.294 3.491,-0.684" style="fill:#fff;fill-rule:nonzero;"/><path d="M16.15,22.436l4.624,0l-0,18.705l2.86,-0l0,-18.705l4.623,0l0,-2.776l-12.107,-0l-0,2.776Z" style="fill:#fff;fill-rule:nonzero;"/><path d="M48.003,35.41l-0.229,0.266c-1.871,2.176 -4.228,3.28 -7.005,3.28c-2.526,0 -4.646,-0.817 -6.301,-2.431c-1.65,-1.61 -2.487,-3.65 -2.487,-6.062c-0,-1.596 0.374,-3.054 1.112,-4.329c0.739,-1.275 1.795,-2.305 3.138,-3.062c1.347,-0.758 2.831,-1.143 4.412,-1.143c1.449,-0 2.796,0.293 4.004,0.873c1.204,0.577 2.252,1.439 3.114,2.562l0.227,0.295l2.219,-1.702l-0.212,-0.294c-1.027,-1.424 -2.363,-2.547 -3.972,-3.337c-1.604,-0.787 -3.424,-1.187 -5.408,-1.187c-3.291,-0 -6.069,1.081 -8.26,3.214c-2.193,2.135 -3.306,4.803 -3.306,7.928c0,2.963 0.918,5.53 2.728,7.631c2.16,2.489 5.142,3.75 8.866,3.75c1.955,-0 3.751,-0.375 5.337,-1.113c1.591,-0.739 2.939,-1.802 4.006,-3.16l0.235,-0.298l-2.218,-1.681Z" style="fill:#fff;fill-rule:nonzero;"/><path d="M149.446,24.164l-1.636,1.256c-0.902,-1.176 -1.985,-2.066 -3.248,-2.672c-1.264,-0.606 -2.652,-0.91 -4.166,-0.91c-1.653,0 -3.185,0.398 -4.594,1.192c-1.41,0.794 -2.502,1.86 -3.277,3.199c-0.775,1.34 -1.163,2.846 -1.163,4.517c0,2.528 0.867,4.638 2.6,6.33c1.734,1.691 3.921,2.537 6.562,2.537c2.903,0 5.333,-1.137 7.286,-3.411l1.636,1.24c-1.033,1.315 -2.324,2.334 -3.869,3.051c-1.545,0.72 -3.272,1.078 -5.181,1.078c-3.626,0 -6.488,-1.207 -8.583,-3.621c-1.757,-2.04 -2.636,-4.501 -2.636,-7.386c0,-3.035 1.064,-5.589 3.193,-7.662c2.128,-2.071 4.794,-3.107 7.999,-3.107c1.936,-0 3.684,0.383 5.242,1.149c1.561,0.766 2.839,1.839 3.835,3.22" style="fill:#fff;fill-rule:nonzero;"/><path d="M166.191,31.832c-0.264,-1.053 -0.646,-1.893 -1.15,-2.522c-0.503,-0.63 -1.169,-1.138 -1.997,-1.522c-0.828,-0.386 -1.698,-0.579 -2.611,-0.579c-1.506,-0 -2.8,0.484 -3.881,1.451c-0.791,0.706 -1.387,1.763 -1.791,3.172l11.43,0Zm-0,4.13l1.663,0.873c-0.545,1.072 -1.175,1.937 -1.891,2.594c-0.714,0.658 -1.518,1.159 -2.411,1.502c-0.895,0.343 -1.905,0.514 -3.034,0.514c-2.502,0 -4.458,-0.819 -5.869,-2.459c-1.411,-1.64 -2.116,-3.494 -2.116,-5.56c-0,-1.946 0.597,-3.68 1.792,-5.202c1.514,-1.935 3.541,-2.904 6.081,-2.904c2.614,0 4.702,0.992 6.263,2.975c1.11,1.4 1.674,3.147 1.693,5.243l-13.8,0c0.037,1.781 0.608,3.242 1.708,4.38c1.102,1.14 2.46,1.709 4.079,1.709c0.78,0 1.541,-0.136 2.278,-0.407c0.739,-0.272 1.367,-0.632 1.885,-1.082c0.517,-0.449 1.078,-1.174 1.679,-2.176" style="fill:#fff;fill-rule:nonzero;"/><rect x="171.744" y="19.795" width="1.973" height="21.256" style="fill:#fff;"/><rect x="177.524" y="19.795" width="1.973" height="21.256" style="fill:#fff;"/><path d="M190.992,27.224c-1.099,-0 -2.113,0.269 -3.041,0.808c-0.929,0.54 -1.669,1.298 -2.218,2.275c-0.549,0.976 -0.823,2.008 -0.823,3.097c-0,1.079 0.276,2.111 0.831,3.097c0.552,0.986 1.297,1.753 2.231,2.302c0.933,0.55 1.936,0.825 3.006,0.825c1.079,-0 2.102,-0.273 3.069,-0.818c0.966,-0.544 1.71,-1.281 2.231,-2.21c0.521,-0.929 0.782,-1.975 0.782,-3.139c-0,-1.775 -0.585,-3.258 -1.753,-4.45c-1.169,-1.191 -2.607,-1.787 -4.315,-1.787m7.886,-1.509l0,15.336l-1.945,-0l0,-2.637c-0.827,1.006 -1.755,1.763 -2.784,2.27c-1.028,0.507 -2.154,0.761 -3.376,0.761c-2.17,0 -4.024,-0.787 -5.561,-2.361c-1.536,-1.574 -2.304,-3.489 -2.304,-5.744c-0,-2.207 0.775,-4.097 2.326,-5.665c1.55,-1.57 3.415,-2.355 5.595,-2.355c1.261,0 2.399,0.268 3.419,0.804c1.019,0.536 1.914,1.339 2.685,2.41l0,-2.819l1.945,-0Z" style="fill:#fff;fill-rule:nonzero;"/></g></g></svg>