<?xml version="1.0" standalone="no"?>
<!DOCTYPE svg PUBLIC "-//W3C//DTD SVG 20010904//EN"
 "http://www.w3.org/TR/2001/REC-SVG-20010904/DTD/svg10.dtd">
<svg version="1.0" xmlns="http://www.w3.org/2000/svg"
 width="700.000000pt" height="700.000000pt" viewBox="0 0 700.000000 700.000000"
 preserveAspectRatio="xMidYMid meet">
<metadata>
Created by potrace 1.14, written by Peter Selinger 2001-2017
</metadata>
<g transform="translate(0.000000,700.000000) scale(0.100000,-0.100000)"
fill="#000000" stroke="none">
<path d="M3299 6996 c-2 -2 -47 -6 -100 -10 -53 -4 -107 -9 -120 -11 -13 -2
-45 -7 -70 -9 -63 -7 -212 -33 -349 -62 -320 -67 -674 -216 -1005 -422 -83
-52 -285 -192 -311 -217 -7 -5 -31 -26 -55 -45 -128 -104 -302 -269 -399 -380
-216 -245 -398 -517 -534 -795 -57 -117 -155 -349 -160 -379 -1 -6 -4 -15 -8
-21 -7 -12 -31 -90 -65 -210 -29 -107 -26 -95 -53 -220 -12 -55 -23 -109 -26
-120 -8 -38 -20 -126 -31 -225 -15 -145 -7 -654 12 -745 2 -11 7 -41 10 -67
39 -329 175 -770 340 -1098 383 -767 1001 -1346 1800 -1688 179 -77 482 -163
687 -197 18 -3 44 -8 58 -10 14 -3 41 -7 60 -10 71 -8 136 -17 160 -20 188
-27 694 -27 860 0 234 38 395 75 576 134 701 229 1301 656 1738 1236 25 33 49
65 53 70 105 136 288 465 382 687 65 154 127 365 156 533 25 138 43 254 50
326 3 30 8 68 10 84 23 181 23 776 0 897 -3 11 -7 46 -11 77 -18 162 -84 425
-155 612 -17 46 -38 102 -46 124 -8 22 -46 105 -84 185 -402 836 -1094 1469
-1954 1788 -118 44 -358 118 -414 127 -19 3 -37 8 -40 10 -12 7 -238 45 -304
50 -38 4 -83 8 -100 11 -35 6 -553 15 -558 10z m503 -740 c32 -3 73 -8 90 -11
18 -3 47 -8 63 -11 451 -71 923 -295 1320 -626 89 -73 295 -274 295 -287 0 -4
-11 -8 -25 -9 -57 -4 -139 -58 -445 -287 -433 -326 -628 -454 -843 -555 -210
-98 -352 -137 -515 -139 -89 -2 -122 2 -197 24 -141 41 -256 110 -377 223
-206 194 -381 480 -601 978 -149 338 -203 434 -245 434 -22 1 182 90 296 130
73 26 193 62 252 75 256 58 403 73 665 70 116 -2 236 -6 267 -9z m-1512 -300
c-5 -14 -8 -33 -6 -43 2 -10 7 -38 11 -63 13 -76 81 -277 222 -654 200 -534
326 -920 359 -1100 2 -16 6 -32 8 -35 2 -3 7 -33 11 -66 3 -32 9 -63 11 -67
10 -16 6 -224 -5 -293 -32 -197 -151 -562 -262 -802 -10 -24 -19 -45 -19 -47
0 -12 -158 -347 -335 -711 -263 -540 -336 -719 -330 -808 1 -20 0 -37 -2 -37
-6 0 -199 146 -242 183 -96 83 -326 324 -399 419 -198 257 -348 543 -441 844
-17 55 -33 111 -36 123 -2 12 -6 30 -9 39 -3 9 -8 35 -12 57 -3 22 -8 43 -9
46 -6 9 -34 190 -42 274 -10 103 -10 446 0 555 7 75 26 208 42 295 24 128 94
359 154 507 70 177 226 447 328 573 5 6 35 44 68 85 57 72 273 294 345 355
172 145 378 287 545 373 52 27 56 27 45 -2z m3438 -829 c175 -237 318 -518
411 -807 127 -397 168 -833 111 -1175 -6 -33 -13 -76 -16 -95 -3 -19 -18 -90
-34 -157 -184 -769 -714 -1483 -1368 -1842 l-72 -39 6 37 c15 92 -72 316 -358
931 -58 124 -117 251 -132 283 -14 31 -38 83 -53 115 -14 31 -54 121 -88 200
-51 116 -60 142 -46 142 42 0 218 135 466 359 17 14 78 68 136 118 132 114
165 151 200 228 55 117 60 256 13 385 -75 210 -239 334 -461 347 l-93 6 23 19
c12 11 42 38 67 61 53 49 178 154 305 256 50 40 97 77 105 84 8 7 110 86 225
177 309 242 429 350 493 439 18 24 32 53 32 65 1 18 6 15 35 -19 19 -22 61
-75 93 -118z m-2208 -2395 c64 -30 206 -168 291 -282 106 -143 279 -415 387
-610 14 -25 53 -94 87 -155 34 -60 77 -137 95 -170 174 -316 299 -505 336
-505 8 0 14 -4 14 -8 0 -8 -24 -20 -130 -65 -25 -10 -59 -25 -76 -32 -101 -46
-401 -126 -525 -141 -30 -3 -56 -8 -59 -9 -13 -8 -187 -18 -305 -19 -152 0
-367 13 -460 27 -22 4 -57 9 -78 12 -336 47 -684 173 -999 362 -97 59 -122 83
-83 83 18 0 80 76 151 185 33 50 61 95 64 100 3 6 38 64 78 130 40 66 79 129
85 140 39 64 84 136 169 265 276 420 526 660 740 709 97 23 140 20 218 -17z"/>
<path d="M3563 5375 c-310 -95 -388 -497 -136 -701 76 -62 150 -87 253 -87
102 0 175 25 249 83 235 186 194 549 -78 683 -56 27 -75 31 -155 33 -53 1
-109 -3 -133 -11z"/>
</g>
</svg>
